<svg width="12" height="14" viewBox="0 0 12 14" fill="none" xmlns="http://www.w3.org/2000/svg">
<path d="M10 9.66665C9.47467 9.66665 9 9.87331 8.644 10.2046L3.94 7.46665C3.97333 7.31331 4 7.15998 4 6.99998C4 6.83998 3.97333 6.68665 3.94 6.53331L8.64 3.79331C9 4.12665 9.47333 4.33331 10 4.33331C11.1067 4.33331 12 3.43998 12 2.33331C12 1.22665 11.1067 0.333313 10 0.333313C8.89333 0.333313 8 1.22665 8 2.33331C8 2.49331 8.02667 2.64665 8.06 2.79998L3.36 5.53998C3 5.20665 2.52667 4.99998 2 4.99998C0.893333 4.99998 0 5.89331 0 6.99998C0 8.10665 0.893333 8.99998 2 8.99998C2.52667 8.99998 3 8.79331 3.36 8.45998L8.05867 11.2053C8.02112 11.3563 8.00143 11.5111 8 11.6666C8 12.0622 8.1173 12.4489 8.33706 12.7778C8.55682 13.1067 8.86918 13.363 9.23463 13.5144C9.60009 13.6658 10.0022 13.7054 10.3902 13.6282C10.7781 13.551 11.1345 13.3606 11.4142 13.0809C11.6939 12.8012 11.8844 12.4448 11.9616 12.0568C12.0387 11.6689 11.9991 11.2667 11.8478 10.9013C11.6964 10.5358 11.44 10.2235 11.1111 10.0037C10.7822 9.78394 10.3956 9.66665 10 9.66665Z" fill="white"/>
</svg>
